# xmcd
#
# Track frame offsets: 
#        150
#        31282
#        55916
#        77323
#
# Disc length: 1233 seconds
#
# Revision: 7
# Processed by: cddbd v1.5.2PL0 Copyright (c) Steve Scherf et al.
# Submitted via: ExactAudioCopy v1.0b4
#
DISCID=2204cf04
DTITLE=Peter Green Splinter Group - Reaching The Cold 100 [disk 2]
DYEAR=2003
DGENRE=Blues Rock
TTITLE0=Black Magic Woman
TTITLE1=It Takes Time
TTITLE2=Green Manalishi
TTITLE3=Albatross
EXTD=www.colornotes.nl YEAR: 2003
EXTT0=
EXTT1=
EXTT2=
EXTT3=
PLAYORDER=
